<svg width="84" height="30" viewBox="0 0 84 30" fill="none" xmlns="http://www.w3.org/2000/svg">
<g clip-path="url(#clip0_0_233)">
<path d="M53.4497 3.41248V25.9999H49.5175V6.46748H42.4977V25.9999H38.5655V3.41248H53.4497Z" fill="black"/>
<path d="M60.0344 26.325C58.3011 26.325 56.9688 25.9891 56.037 25.3175V22.165C56.5355 22.5116 57.077 22.7825 57.662 22.9775C58.2686 23.1725 58.9834 23.27 59.807 23.27C61.0419 23.27 61.9734 22.9125 62.6016 22.1975C63.2299 21.4608 63.6199 20.4533 63.7716 19.175H58.0844V16.12H63.7392C63.3708 13.6283 62.0926 12.3825 59.9043 12.3825C59.2328 12.3825 58.561 12.4908 57.8894 12.7075C57.2395 12.9241 56.7194 13.1516 56.3294 13.39V10.1075C56.7413 9.89082 57.2936 9.70664 57.9871 9.55497C58.6802 9.40332 59.5143 9.32748 60.4893 9.32748C61.7026 9.32748 62.7642 9.54415 63.674 9.97748C64.6057 10.3891 65.3749 10.9741 65.9816 11.7325C66.6098 12.4691 67.0756 13.3683 67.379 14.43C67.7039 15.47 67.8664 16.6075 67.8664 17.8425C67.8664 20.5941 67.2165 22.6958 65.9164 24.1475C64.6382 25.5991 62.6776 26.325 60.0344 26.325Z" fill="black"/>
<path d="M77.0577 7.50748C75.498 7.50748 74.3172 7.11748 73.5155 6.33748C72.7355 5.55748 72.3455 4.58248 72.3455 3.41248H75.5954C75.5954 3.97581 75.7255 4.38748 75.9854 4.64749C76.2669 4.90748 76.6245 5.03749 77.0577 5.03749C77.4694 5.03749 77.7945 4.90748 78.0327 4.64749C78.271 4.36581 78.3903 3.95415 78.3903 3.41248H81.6401C81.6401 3.97581 81.5425 4.50664 81.3475 5.00498C81.1525 5.50333 80.8601 5.93666 80.4701 6.30499C80.1018 6.67333 79.6252 6.9658 79.0402 7.18249C78.4768 7.39916 77.8161 7.50748 77.0577 7.50748ZM74.1979 9.65248V19.7925L80.1126 9.65248H83.5574V25.9999H79.8202V15.8925L73.9055 25.9999H70.4607V9.65248H74.1979Z" fill="black"/>
<path d="M15.4842 0H15.4426C7.15836 0 0.442627 6.71573 0.442627 15C0.442627 23.2843 7.15836 30 15.4426 30H15.4842C23.7685 30 30.4842 23.2843 30.4842 15C30.4842 6.71573 23.7685 0 15.4842 0Z" fill="#FC3F1D"/>
<path d="M17.5802 24.015H20.7184V6.01501H16.1538C11.5633 6.01501 9.15135 8.37183 9.15135 11.8423C9.15135 14.6136 10.474 16.2452 12.8341 17.9287L8.73639 24.015H12.1339L16.6985 17.2035L15.1164 16.1416C13.1972 14.8467 12.2636 13.8366 12.2636 11.661C12.2636 9.74451 13.6122 8.44954 16.1798 8.44954H17.5802V24.015Z" fill="white"/>
</g>
<defs>
<clipPath id="clip0_0_233">
<rect width="83.1148" height="30" fill="white" transform="translate(0.442627)"/>
</clipPath>
</defs>
</svg>
